<?xml version="1.0" encoding="utf-8"?>
<!-- Generator: Adobe Illustrator 16.0.0, SVG Export Plug-In . SVG Version: 6.00 Build 0)  -->
<!DOCTYPE svg PUBLIC "-//W3C//DTD SVG 1.1//EN" "http://www.w3.org/Graphics/SVG/1.1/DTD/svg11.dtd">
<svg version="1.1" id="Capa_1" xmlns="http://www.w3.org/2000/svg" xmlns:xlink="http://www.w3.org/1999/xlink" x="0px" y="0px"
	 width="500px" height="83px" viewBox="0 0 500 83" enable-background="new 0 0 500 83" xml:space="preserve">
<g>
	<path fill="#FFFFFF" d="M474.668,18.152h0.641c2.659,0,4.052-0.974,4.052-2.81c0-1.707-1.314-2.605-3.912-2.605h-0.78V18.152z
		 M478.752,20.86l6.372,8.221h-4.593l-5.863-7.825v7.825h-3.773V9.392h3.979c2.745,0,4.739,0.489,6.04,1.459
		c1.389,1.145,2.056,2.639,2.056,4.475c0,1.212-0.35,2.355-1.11,3.391c-0.76,1.016-1.712,1.741-2.855,2.063L478.752,20.86z
		 M476.946,4.635c-3.909,0-7.227,1.418-10.032,4.302c-2.748,2.881-4.138,6.292-4.138,10.219c0,4.088,1.39,7.514,4.138,10.43
		c2.806,2.859,6.174,4.27,10.141,4.27c3.932,0,7.327-1.41,10.106-4.27c2.781-2.874,4.136-6.341,4.136-10.372
		c0-2.184-0.549-4.407-1.606-6.735c-1.083-2.177-2.493-3.885-4.321-5.184C482.845,5.519,480.08,4.635,476.946,4.635 M494.112,19.214
		c0,4.716-1.719,8.79-5.002,12.119c-3.311,3.306-7.297,5.004-12.056,5.004c-4.682,0-8.746-1.699-12.075-5.023
		c-3.325-3.364-4.997-7.394-4.997-12.158c0-2.645,0.561-5.043,1.631-7.194c1.072-2.331,2.604-4.313,4.556-5.868
		c3.213-2.691,6.768-3.954,10.722-3.954c2.609,0,4.968,0.497,7.125,1.508c3.014,1.283,5.412,3.379,7.281,6.253
		C493.107,12.763,494.112,15.902,494.112,19.214"/>
	<path fill="#FFFFFF" d="M81.85,79.426L74.539,7.825H50.521c0,0-2.461,11.057-3.688,18.171c-1.297,7.751-3.001,20.169-3.001,20.169
		s-1.442-12.325-2.776-20.077c-1.072-7.127-3.183-18.264-3.183-18.264H14.095L5.888,79.426h20.857c0,0,0.845-13.607,1.197-22.292
		c0.289-8.702,0.476-22.546,0.476-22.546s2.139,13.926,3.461,22.723c1.494,8.621,3.814,22.115,3.814,22.115h15.763
		c0,0,2.791-14.932,4.549-24.255c1.33-8.045,3.379-20.698,3.379-20.698s0.257,12.653,0.666,20.524
		c0.455,9.497,1.646,24.429,1.646,24.429H81.85z"/>
	<polygon fill="#FFFFFF" points="124.043,24.963 124.043,7.825 88.497,7.825 88.497,79.426 123.951,79.426 123.951,62.295 
		107.43,62.295 107.43,51.535 122.271,51.535 122.271,34.585 107.43,34.585 107.43,24.963 	"/>
	<polygon fill="#FFFFFF" points="172.319,24.963 172.319,7.825 131.281,7.825 131.281,24.963 141.828,24.963 141.828,79.426 
		161.272,79.426 161.272,24.963 	"/>
	<path fill="#FFFFFF" d="M344.091,45.005v-6.829h-26.926v14.93h7.117v2.176c0,4.118-3.457,8.491-6.647,8.324
		c-8.361-0.543-7.279-15.299-7.279-20.276c-0.109-7.404,0.549-19.308,7.945-19.503c2.419-0.093,5.269,2.884,5.888,7.217
		l18.335-6.948l-0.657-1.269c-5.533-11.835-14.026-16.291-23.962-16.291c-20.091,0.108-27.831,19.749-27.344,37.998
		c0.24,17.627,6.611,35.646,27.809,36.313C337.825,81.397,344.091,62.031,344.091,45.005"/>
	<path fill="#FFFFFF" d="M440.865,56.392c0.451-17.422-18.286-21.062-18.115-28.158c0-1.856,1.717-4.407,5.022-4.314
		c3.675,0.105,6.929,2.458,8.43,4.231l2.769,3.166V9.901l-2.399-1.124c-0.742-0.379-7.039-2.407-11.595-2.531
		c-12.644-0.149-20.701,10.932-21.215,23.775c-0.682,16.379,18.109,21.604,18.017,27.401c0,1.878,0.482,5.534-5.53,6.187
		c-0.994,0.081-6.617-0.093-10.555-5.805l-1.673-2.253v21.991l2.643,1.102c1.295,0.543,7.179,2.064,11.854,1.959
		C433.592,80.337,440.397,69.195,440.865,56.392"/>
	<path fill="#FFFFFF" d="M208.496,31.417c-0.076,4.393-2.615,9.345-7.036,9.345h-2.15V22.995h1.8
		C204.848,22.995,208.496,26.08,208.496,31.417 M230.681,79.426l-14.205-29.955l1.838-0.958c6.846-3.317,9.003-10.251,9.107-17.097
		c0.187-13.307-5.347-23.592-28.459-23.592h-18.886v71.601h19.233V50.093c0,0,3.972,11.728,6.664,19.001
		c1.484,3.935,4.045,10.332,4.045,10.332H230.681z"/>
	<path fill="#FFFFFF" d="M265.035,44.111c0,7.994-1.673,19.663-7.436,19.215c-6.298-0.478-7.82-11.605-7.707-19.868
		c0.12-7.93,2.149-18.771,7.587-18.889C263.653,24.388,265.035,36.015,265.035,44.111 M285.148,44.589
		c0.384-18.592-8.852-38.705-29.055-38.052c-17.376,0.568-25.832,19.459-25.832,36.794c0,17.906,7.655,36.896,27.015,37.375
		C276.111,81.079,284.889,62.163,285.148,44.589"/>
	<path fill="#FFFFFF" d="M375.831,55.283h-8.282l4.547-30.026L375.831,55.283z M399.597,79.426L384.072,7.825h-23.55l-16.887,71.601
		h19.768l1.804-9.093h13.109l1.381,9.093H399.597z"/>
</g>
</svg>
