<svg id="Capa_1" data-name="Capa 1" xmlns="http://www.w3.org/2000/svg" xmlns:xlink="http://www.w3.org/1999/xlink" viewBox="0 0 381.23 85.7"><defs><style>.cls-1,.cls-2{fill:none;}.cls-1{clip-rule:evenodd;}.cls-3{clip-path:url(#clip-path);}.cls-4{fill:#fff;}.cls-5{clip-path:url(#clip-path-2);}.cls-6{clip-path:url(#clip-path-3);}.cls-7{clip-path:url(#clip-path-4);}.cls-8{clip-path:url(#clip-path-5);}.cls-9{clip-path:url(#clip-path-6);}.cls-10{clip-path:url(#clip-path-7);}.cls-11{clip-path:url(#clip-path-8);}.cls-12{clip-path:url(#clip-path-9);}.cls-13{clip-path:url(#clip-path-10);}.cls-14{isolation:isolate;}.cls-15{clip-path:url(#clip-path-11);}.cls-16{clip-path:url(#clip-path-12);}</style><clipPath id="clip-path" transform="translate(5.94 8.26)"><path class="cls-1" d="M63.92,61.52L58.45,9.78h-18s-1.87,8-2.77,13.12c-1,5.62-2.25,14.6-2.25,14.6S34.32,28.58,33.37,23C32.58,17.83,31,9.78,31,9.78H13.17L7,61.52H22.61s0.67-9.8.94-16.1,0.36-16.3.36-16.3,1.61,10.09,2.56,16.44c1.16,6.22,2.89,16,2.89,16H41.15S43.25,50.74,44.58,44c1-5.83,2.54-14.94,2.54-14.94s0.19,9.11.48,14.78c0.32,6.9,1.24,17.68,1.24,17.68H63.92Z"/></clipPath><clipPath id="clip-path-2" transform="translate(5.94 8.26)"><polygon class="cls-1" points="94.96 22.16 94.96 9.78 69.09 9.78 69.09 61.52 94.93 61.52 94.93 49.15 82.85 49.15 82.85 41.37 93.69 41.37 93.69 29.13 82.85 29.13 82.85 22.16 94.96 22.16"/></clipPath><clipPath id="clip-path-3" transform="translate(5.94 8.26)"><polygon class="cls-1" points="131.18 22.16 131.18 9.78 100.13 9.78 100.13 22.16 108.14 22.16 108.14 61.52 122.79 61.52 122.79 22.16 131.18 22.16"/></clipPath><clipPath id="clip-path-4" transform="translate(5.94 8.26)"><path class="cls-1" d="M257.92,38.32v-5H238.5v11h5.11v1.57c0,3-2.51,6.21-4.81,6.08-6-.43-5.23-11.13-5.23-14.82-0.09-5.42.4-14.08,5.74-14.21,1.76-.09,3.77,2.06,4.25,5.24l13.22-5.05-0.46-1c-4-8.62-10.12-11.9-17.28-11.9-14.53,0-20.12,14.43-19.77,27.74C219.44,50.89,224,64,239.36,64.5c14,0.38,18.56-13.75,18.56-26.18"/></clipPath><clipPath id="clip-path-5" transform="translate(5.94 8.26)"><path class="cls-1" d="M330.38,46.4c0.33-12.69-14-15.35-13.9-20.55a3.49,3.49,0,0,1,3.84-3.13,9.59,9.59,0,0,1,6.47,3.08l2.14,2.31V12.46l-1.84-.83a33.72,33.72,0,0,0-8.9-1.85c-9.67-.12-15.83,8-16.25,17.39-0.5,11.93,13.91,15.77,13.85,20,0,1.36.34,4-4.25,4.52a9.81,9.81,0,0,1-8.12-4.23l-1.26-1.63v16l2,0.84a31,31,0,0,0,9.07,1.42c11.52-.22,16.75-8.32,17.14-17.7"/></clipPath><clipPath id="clip-path-6" transform="translate(5.94 8.26)"><path class="cls-1" d="M175.16,61.52L164.28,39.88l1.44-.66c5.16-2.44,6.84-7.45,6.93-12.37,0.16-9.63-4.06-17.06-21.83-17.06H136.35V61.52h14.78V40.37s3,8.46,5.07,13.72c1.17,2.82,3.12,7.43,3.12,7.43h15.84Zm-17-34.68c0,3.16-2,6.75-5.36,6.75h-1.65V20.75h1.35A5.74,5.74,0,0,1,158.14,26.84Z"/></clipPath><clipPath id="clip-path-7" transform="translate(5.94 8.26)"><path class="cls-1" d="M214,37.67C214.24,24,207.26,9.3,192,9.79c-13.12.41-19.47,14.24-19.47,26.93,0,13.14,5.77,27,20.37,27.39,14.18,0.29,20.81-13.56,21-26.43m-15.14-.34c0,5.8-1.28,14.37-5.65,14-4.71-.33-5.86-8.47-5.78-14.5C187.44,31,189,23.08,193.12,23c4.63-.13,5.69,8.38,5.69,14.32"/></clipPath><clipPath id="clip-path-8" transform="translate(5.94 8.26)"><path class="cls-1" d="M299.34,61.52L287.85,9.78H270.47L257.94,61.52h14.64L273.92,55h9.67l1,6.56h14.73ZM281.79,44.08h-6.13L279,22.38Z"/></clipPath><clipPath id="clip-path-9" transform="translate(5.94 8.26)"><path class="cls-1" d="M351.58,18.63c0.89,1.66,1.12,2.13,2,4l0.1,0.1,1.25-.1h1.26l0.09-.18a22.58,22.58,0,0,1-1.66-2.59c-0.41-.76-0.62-1.12-1-1.76a2.82,2.82,0,0,0,1.84-2.73,2.93,2.93,0,0,0-1.26-2.62,5.74,5.74,0,0,0-3-.35l-1,0h-1.6l-0.13.06c0.08,1.45.13,3,.13,6.93,0,1.36,0,2-.05,3.19l0.07,0.09c1-.06,1.24-0.07,2.34-0.06l0-.09c-0.1-1.65-.1-2.11-0.12-3.86Zm-0.65-4.48h0.57a1.26,1.26,0,0,1,1.57,1.26,1.37,1.37,0,0,1-.6,1.26,2.82,2.82,0,0,1-1.53.29V14.15Z"/></clipPath><clipPath id="clip-path-10" transform="translate(5.94 8.26)"><rect class="cls-2" x="341.66" y="4.68" width="20.71" height="22.67"/></clipPath><clipPath id="clip-path-11" transform="translate(5.94 8.26)"><rect class="cls-2" x="340.73" y="4.61" width="23.28" height="23.28"/></clipPath><clipPath id="clip-path-12" transform="translate(5.94 8.26)"><path class="cls-1" d="M352,27.34c-5.71,0-10.36-5.09-10.36-11.34S346.31,4.68,352,4.68,362.36,9.76,362.36,16,357.72,27.34,352,27.34m0-21.19c-5,0-9,4.42-9,9.85s4,9.86,9,9.86,9-4.43,9-9.86-4-9.85-9-9.85"/></clipPath></defs><title>logo-footer</title><g class="cls-3"><rect class="cls-4" y="5.1" width="82.79" height="77.61"/></g><g class="cls-5"><rect class="cls-4" x="62.09" y="5.1" width="51.74" height="77.61"/></g><g class="cls-6"><rect class="cls-4" x="93.13" y="5.1" width="56.92" height="77.61"/></g><g class="cls-7"><rect class="cls-4" x="212.24" y="5.53" width="64.55" height="80.17"/></g><g class="cls-8"><rect class="cls-4" x="294.92" y="5.1" width="54.33" height="80.2"/></g><g class="cls-9"><rect class="cls-4" x="129.35" y="5.1" width="64.68" height="77.61"/></g><g class="cls-10"><rect class="cls-4" x="165.57" y="5.1" width="67.26" height="80.2"/></g><g class="cls-11"><rect class="cls-4" x="250.94" y="5.1" width="67.26" height="77.61"/></g><g class="cls-12"><rect class="cls-4" x="341.49" y="7.69" width="33.63" height="36.22"/></g><g class="cls-13"><g class="cls-14"><g class="cls-15"><g class="cls-16"><g class="cls-15"><rect class="cls-4" x="334.66" width="46.58" height="48.54"/></g></g></g></g></g></svg>