<?xml version="1.0" encoding="utf-8"?>
<!-- Generator: Adobe Illustrator 16.0.0, SVG Export Plug-In . SVG Version: 6.00 Build 0)  -->
<!DOCTYPE svg PUBLIC "-//W3C//DTD SVG 1.1//EN" "http://www.w3.org/Graphics/SVG/1.1/DTD/svg11.dtd">
<svg version="1.1" id="Capa_1" xmlns="http://www.w3.org/2000/svg" xmlns:xlink="http://www.w3.org/1999/xlink" x="0px" y="0px"
	 width="26.497px" height="27.389px" viewBox="0 0 26.497 27.389" enable-background="new 0 0 26.497 27.389" xml:space="preserve">
<g>
	<path fill="#FFFFFF" d="M3.745,5.645c0.144-0.288,0.299-0.563,0.468-0.828c0.168-0.263,0.372-0.54,0.612-0.828
		c-0.048-0.095,0.011-0.347,0.18-0.756C5.172,2.826,5.304,2.574,5.4,2.477c0.191-0.144,0.384-0.299,0.576-0.468
		c0.191-0.167,0.407-0.324,0.648-0.468c0.24,0,0.456,0.036,0.648,0.108C7.464,1.721,7.68,1.805,7.92,1.901
		c0.24,0.097,0.456,0.18,0.648,0.252C8.76,2.225,8.976,2.31,9.217,2.405c0.239,0.097,0.432,0.216,0.576,0.36
		s0.312,0.288,0.504,0.432c0,0.192,0.024,0.36,0.072,0.504c-0.097,0.192-0.169,0.372-0.216,0.54
		c-0.048,0.168-0.121,0.372-0.216,0.612v0.144c-0.048,0.097-0.108,0.156-0.18,0.18C9.685,5.202,9.672,5.285,9.721,5.429
		c0.047,0.048,0.096,0.084,0.144,0.108c0.047,0.024,0.096,0.061,0.144,0.108c0.047,0.097,0.072,0.216,0.072,0.36
		s0.024,0.313,0.072,0.504c-0.144,0.144-0.265,0.241-0.36,0.288C9.84,6.845,9.865,6.989,9.865,7.229c0,0.144-0.025,0.264-0.072,0.36
		C9.744,7.686,9.696,7.781,9.648,7.877C9.6,7.974,9.577,8.069,9.577,8.165C9.528,8.262,9.516,8.334,9.541,8.381
		c0.024,0.048,0.011,0.121-0.036,0.216c-0.097,0.241-0.18,0.468-0.252,0.684C9.181,9.497,9.145,9.726,9.145,9.965
		c-0.048,0.241-0.168,0.553-0.36,0.936c-0.192,0.529-0.313,0.9-0.36,1.116c-0.048,0.216-0.072,0.588-0.072,1.116
		c-0.241,0.385-0.408,0.864-0.504,1.44c0,0.097,0.011,0.168,0.036,0.216c0.023,0.048,0.036,0.12,0.036,0.216
		c-0.048,0.241-0.168,0.601-0.36,1.08c0,0.913,0.144,1.753,0.432,2.52c0.096,0.144,0.144,0.288,0.144,0.432s0.023,0.288,0.072,0.432
		c0.288,0.528,0.587,1.068,0.9,1.62c0.312,0.553,0.78,1.021,1.404,1.404c0.144,0,0.24-0.024,0.288-0.072
		c0.864-0.383,1.571-0.911,2.124-1.584c0.551-0.671,0.996-1.44,1.332-2.304l0.864-2.16c0.144-0.335,0.288-0.648,0.432-0.936
		s0.24-0.623,0.288-1.008c0.239-0.528,0.407-1.08,0.504-1.656c0.096-0.576,0.24-1.127,0.432-1.656
		c0.095-0.288,0.191-0.576,0.288-0.864c0.096-0.288,0.191-0.551,0.288-0.792c0.047-0.432,0.072-0.864,0.072-1.296s0-0.864,0-1.296
		c-0.048,0-0.084-0.011-0.108-0.036c-0.024-0.023-0.061-0.036-0.108-0.036c-0.48-0.047-0.936-0.072-1.368-0.072
		c-0.432,0-0.864-0.047-1.296-0.144c-0.097-0.047-0.228-0.096-0.396-0.144c-0.168-0.047-0.3-0.096-0.396-0.144
		c-0.385-0.096-0.648-0.252-0.792-0.468c-0.144-0.216-0.336-0.443-0.576-0.684c-0.144-0.144-0.229-0.312-0.252-0.504
		c-0.025-0.191-0.084-0.407-0.18-0.648c-0.097-0.239-0.18-0.504-0.252-0.792c-0.072-0.288-0.061-0.6,0.036-0.936
		c0.095-0.24,0.18-0.492,0.252-0.756c0.072-0.263,0.155-0.54,0.252-0.828c0.527-0.144,1.044-0.299,1.548-0.468
		c0.504-0.167,1.068-0.227,1.692-0.18c0.24,0.097,0.468,0.18,0.684,0.252c0.216,0.072,0.443,0.18,0.684,0.324
		c0.144,0.144,0.288,0.313,0.432,0.504c0.144,0.192,0.36,0.336,0.648,0.432c0.047,0.241,0.119,0.468,0.216,0.684
		c0.096,0.216,0.263,0.396,0.504,0.54c0.096,0.097,0.168,0.216,0.216,0.36c0.047,0.144,0.096,0.264,0.144,0.36
		c0.096,0.241,0.204,0.48,0.324,0.72c0.119,0.241,0.299,0.457,0.54,0.648c0.384,0.048,0.803,0.084,1.26,0.108
		c0.456,0.025,0.875-0.011,1.26-0.108c0.479-0.144,0.911-0.288,1.296-0.432c0.384-0.144,0.839-0.263,1.368-0.36
		c0.096-0.047,0.288-0.167,0.576-0.36c0.095,0.048,0.191,0.024,0.288-0.072c0.096-0.096,0.216-0.119,0.36-0.072
		c0.096,0.097,0.144,0.216,0.144,0.36s0.023,0.288,0.072,0.432c-0.097,0.097-0.18,0.252-0.252,0.468
		c-0.072,0.216-0.133,0.373-0.18,0.468c-0.432,0.241-0.804,0.493-1.116,0.756c-0.313,0.264-0.684,0.421-1.116,0.468
		c-0.144,0-0.192,0-0.144,0c0.047,0-0.048,0.049-0.288,0.144c-0.48,0.192-0.984,0.288-1.512,0.288c-0.529,0-1.057,0-1.584,0h-0.072
		c-0.097,0.097-0.144,0.169-0.144,0.216c0,0.048,0.023,0.12,0.072,0.216c0.144,0.336,0.167,0.696,0.072,1.08
		c-0.048,0.336-0.097,0.66-0.144,0.972c-0.049,0.313-0.049,0.637,0,0.972c0,0.241,0,0.493,0,0.756c0,0.265-0.025,0.517-0.072,0.756
		c-0.048,0.241-0.048,0.48,0,0.72c0.047,0.241,0.023,0.48-0.072,0.72c0.047,0.192,0.047,0.36,0,0.504
		c-0.048,0.144-0.097,0.288-0.144,0.432c-0.048,0.144-0.072,0.288-0.072,0.432c0,0.144-0.024,0.288-0.072,0.432
		c0,0.048-0.013,0.097-0.036,0.144c-0.025,0.048-0.036,0.097-0.036,0.144c0.096,0.385,0.096,0.745,0,1.08
		c-0.097,0.336-0.192,0.696-0.288,1.08c-0.192,0.672-0.216,1.224-0.072,1.656c-0.192,0.529-0.432,1.021-0.72,1.476
		c-0.288,0.457-0.576,0.925-0.864,1.404c-0.192,0.288-0.36,0.504-0.504,0.648c-0.48,0.48-0.936,1.008-1.368,1.584
		c-0.097,0.097-0.168,0.18-0.216,0.252c-0.048,0.072-0.121,0.132-0.216,0.18c-0.385,0.288-0.648,0.48-0.792,0.576
		c-0.528,0.385-1.056,0.732-1.584,1.044c-0.529,0.313-1.128,0.517-1.8,0.612c-0.144,0-0.36,0.048-0.648,0.144
		c-0.097,0-0.169-0.023-0.216-0.072c-0.528,0.144-1.056,0.229-1.584,0.252c-0.528,0.025-1.056,0.036-1.584,0.036H6.841
		c-0.336-0.096-0.673-0.216-1.008-0.36c-0.336-0.144-0.673-0.263-1.008-0.36c-0.48-0.191-0.769-0.432-0.864-0.72
		c-0.048-0.096-0.108-0.18-0.18-0.252c-0.072-0.072-0.133-0.155-0.18-0.252l0.144-0.144c-0.048-0.144-0.121-0.252-0.216-0.324
		c-0.097-0.072-0.192-0.155-0.288-0.252c-0.097-0.096-0.205-0.191-0.324-0.288c-0.12-0.096-0.228-0.191-0.324-0.288
		c-0.192-0.288-0.313-0.504-0.36-0.648c-0.097-0.096-0.18-0.144-0.252-0.144c-0.072,0-0.108-0.047-0.108-0.144H1.584
		c0.096-0.432,0.047-0.767-0.144-1.008c-0.192-0.288-0.336-0.624-0.432-1.008c-0.048-0.191-0.097-0.36-0.144-0.504
		c-0.048-0.144-0.072-0.312-0.072-0.504c0-0.288-0.097-0.671-0.288-1.152c-0.097-0.096-0.192-0.168-0.288-0.216
		c-0.048-0.239-0.061-0.383-0.036-0.432c0.023-0.047,0.083-0.191,0.18-0.432c-0.049-0.528-0.084-1.055-0.108-1.584
		C0.228,15.845,0.145,15.318,0,14.789c0.047-0.191,0.096-0.396,0.144-0.612c0.047-0.216,0.024-0.443-0.072-0.684
		c0-0.096-0.013-0.18-0.036-0.252c-0.025-0.072-0.012-0.155,0.036-0.252c0.191-0.383,0.275-0.767,0.252-1.152
		C0.3,11.454,0.289,11.07,0.289,10.685c0-0.047,0.023-0.096,0.072-0.144h0.288c0.047-0.047,0.096-0.083,0.144-0.108
		c0.047-0.024,0.096-0.083,0.144-0.18c0.047,0.048,0.119,0.072,0.216,0.072c0.191-0.24,0.263-0.479,0.216-0.72
		C1.32,9.365,1.344,9.101,1.44,8.813c0.144-0.144,0.264-0.288,0.36-0.432c0.096,0.048,0.167,0.072,0.216,0.072
		c0.096-0.096,0.24-0.312,0.432-0.648C2.64,7.47,2.737,7.182,2.737,6.941C2.976,6.75,3.168,6.545,3.312,6.329
		C3.457,6.113,3.601,5.886,3.745,5.645z M1.873,23.213c0.096,0,0.119-0.047,0.072-0.144C1.896,23.117,1.873,23.166,1.873,23.213z
		 M3.457,25.445h0.072H3.457z M3.529,25.517v-0.072h0.072C3.601,25.493,3.576,25.517,3.529,25.517z M16.489,4.997
		c0.432,0.097,0.815,0.072,1.152-0.072c-0.144-0.383-0.252-0.731-0.324-1.044c-0.072-0.312-0.205-0.612-0.396-0.9
		c-0.192-0.335-0.385-0.648-0.576-0.936c-0.192-0.288-0.457-0.504-0.792-0.648c-0.48-0.096-0.864-0.047-1.152,0.144
		c-0.144,0.288-0.288,0.648-0.432,1.08c0,0.144,0.011,0.288,0.036,0.432c0.024,0.144,0.036,0.312,0.036,0.504
		c0.24,0.097,0.396,0.252,0.468,0.468c0.072,0.216,0.204,0.444,0.396,0.684c0.239,0.048,0.492,0.097,0.756,0.144
		C15.924,4.901,16.201,4.95,16.489,4.997z"/>
</g>
</svg>
